<svg width="250" height="40" viewBox="0 0 250 40" fill="none" xmlns="http://www.w3.org/2000/svg">
<g clip-path="url(#clip0_992_250)">
<path d="M31.4278 9.77211V15.2324L16.9233 7.90366V25.5781H24.1749V30.4648H12.0881V0L31.4278 9.77211Z" fill="white"/>
<path d="M38.6806 30.4662V21.6277L19.341 11.8542V23.1374H24.1762V19.7605L26.5938 20.9828V35.1133H24.1749V32.9095H19.341V35.1133V40H24.1749H33.8454H38.6806V32.9095H33.8454V35.1133H31.429V23.4249L33.8467 24.6472V30.4662H38.6806Z" fill="#FFCD05"/>
<path d="M16.9221 32.9819V39.9999H0V20.8843L9.66919 15.9976V32.9819H16.9221Z" fill="white"/>
<path d="M54.8122 27.8673C54.8122 20.5127 59.4437 15.6726 66.407 15.6726C72.2352 15.6726 76.426 19.0482 77.1499 24.3337H71.7688C71.0757 21.9772 69.0911 20.6396 66.2866 20.6396C62.5058 20.6396 60.206 23.3471 60.206 27.8363C60.206 32.262 62.5378 35.033 66.2866 35.033C69.1539 35.033 71.2653 33.5996 71.8957 31.2779H77.1883C76.3696 36.5311 72.0212 40.0025 66.1931 40.0025C59.1913 39.9999 54.8122 35.3191 54.8122 27.8673Z" fill="white"/>
<path d="M90.8254 28.696H89.2879C86.5154 28.696 84.8447 29.9378 84.8447 33.0894V39.9999H79.9864V24.111H84.5552L84.8114 26.4663C85.4725 24.9125 86.8613 23.856 88.9702 23.856C89.5963 23.8569 90.2202 23.9317 90.8292 24.0787L90.8254 28.696Z" fill="white"/>
<path d="M91.9592 31.5939C91.9592 26.6257 95.2673 23.1555 100.031 23.1555C104.977 23.1555 108.065 26.4353 108.065 31.6263V32.8681L96.6279 32.9315C96.911 35.033 98.0769 36.0197 100.215 36.0197C102.044 36.0197 103.335 35.3516 103.681 34.2069H108.124C107.557 37.7418 104.438 40.0026 100.122 40.0026C95.3621 40 91.9592 36.4975 91.9592 31.5939ZM96.6856 29.9107H103.239C103.239 28.2274 102.01 27.141 100.056 27.141C98.1346 27.1358 97.0699 27.9956 96.6856 29.9055V29.9107Z" fill="white"/>
<path d="M118.142 23.1555C122.805 23.1555 125.893 25.7348 126.213 29.9055H121.324C120.978 28.3141 120.001 27.5502 118.331 27.5502C116.281 27.5502 114.961 29.1105 114.961 31.5642C114.961 34.1124 116.189 35.6079 118.269 35.6079C119.97 35.6079 121.009 34.8129 121.324 33.2526H126.208C125.893 37.2666 122.68 40.0026 118.265 40.0026C113.286 40.0026 110.073 36.6593 110.073 31.5642C110.077 26.658 113.417 23.1555 118.142 23.1555Z" fill="white"/>
<path d="M128.855 40.0001V15.9861H133.738V25.7297C134.715 24.3598 136.51 23.5647 138.559 23.5647C142.308 23.5647 144.482 25.9848 144.482 30.1554V39.9962H139.63V31.3389C139.63 29.3332 138.527 28.0267 136.857 28.0267C134.936 28.0267 133.707 29.3009 133.707 31.2755V40.0001H128.855Z" fill="white"/>
<path d="M147.097 31.5939C147.097 26.6257 150.405 23.1555 155.168 23.1555C160.115 23.1555 163.203 26.4353 163.203 31.6263V32.8681L151.766 32.9315C152.049 35.033 153.215 36.0197 155.353 36.0197C157.181 36.0197 158.473 35.3516 158.812 34.2069H163.255C162.688 37.7418 159.569 40.0026 155.253 40.0026C150.496 40 147.097 36.4975 147.097 31.5939ZM151.823 29.9107H158.376C158.376 28.2274 157.148 27.141 155.194 27.141C153.272 27.1358 152.201 27.9956 151.823 29.9055V29.9107Z" fill="white"/>
<path d="M171.764 40H166.659V16.4341H171.764V40Z" fill="#FFCD05"/>
<path d="M176.021 40V24.0736H180.558L180.873 25.7297C181.661 24.6148 183.205 23.5647 185.474 23.5647C187.836 23.5647 189.348 24.6783 190.262 26.3667C191.082 24.6834 192.941 23.5647 195.208 23.5647C199.274 23.5647 201.289 25.9524 201.289 29.5831V39.9948H196.437V30.9569C196.437 28.9512 195.398 27.9956 193.854 27.9956C192.468 27.9956 191.082 28.7596 191.082 31.4671V40H186.23V30.9569C186.23 28.9823 185.221 28.0267 183.678 28.0267C182.291 28.0267 180.873 28.7919 180.873 31.4671V40H176.021Z" fill="#FFCD05"/>
<path d="M204.756 40V24.0736H209.294L209.608 25.7297C210.396 24.6148 211.939 23.5647 214.208 23.5647C216.571 23.5647 218.084 24.6783 218.998 26.3667C219.816 24.6834 221.675 23.5647 223.944 23.5647C228.008 23.5647 230.025 25.9524 230.025 29.5831V39.9948H225.173V30.9569C225.173 28.9512 224.133 27.9956 222.589 27.9956C221.203 27.9956 219.816 28.7596 219.816 31.4671V40H214.964V30.9569C214.964 28.9823 213.956 28.0267 212.412 28.0267C211.026 28.0267 209.608 28.7919 209.608 31.4671V40H204.756Z" fill="#FFCD05"/>
<path d="M241.333 23.219C246.342 23.219 249.996 26.5946 249.996 31.6251C249.996 36.6555 246.342 40 241.333 40C236.291 40 232.636 36.6568 232.636 31.6251C232.636 26.5933 236.295 23.219 241.333 23.219ZM241.333 35.6054C243.57 35.6054 245.114 34.014 245.114 31.5914C245.114 29.2024 243.576 27.6111 241.333 27.6111C239.064 27.6111 237.52 29.2024 237.52 31.5914C237.524 34.014 239.068 35.6054 241.333 35.6054Z" fill="#FFCD05"/>
</g>
<defs>
<clipPath id="clip0_992_250">
<rect width="250" height="40" fill="white"/>
</clipPath>
</defs>
</svg>
